<svg xmlns="http://www.w3.org/2000/svg" viewBox="0 0 143.93 297.36"><g id="Layer_2" data-name="Layer 2"><g id="Layer_1-2" data-name="Layer 1"><path d="M134.44,297.36H9.49A9.49,9.49,0,0,1,0,287.87V107.37A80.51,80.51,0,0,1,12.09,64.92L24.26,45.29a9.45,9.45,0,0,1,8.06-4.49h79.29a9.47,9.47,0,0,1,8.07,4.49l12.16,19.63a80.48,80.48,0,0,1,12.09,42.45v180.5A9.49,9.49,0,0,1,134.44,297.36ZM19,278.38H125v-171a61.63,61.63,0,0,0-9.24-32.46l-9.38-15.14H37.61L28.22,74.91A61.57,61.57,0,0,0,19,107.37Z"/><path d="M134.44,244.88H9.49A9.49,9.49,0,0,1,0,235.39v-120a9.49,9.49,0,0,1,9.49-9.49h125a9.49,9.49,0,0,1,9.49,9.49v120A9.49,9.49,0,0,1,134.44,244.88ZM19,225.9H125V124.84H19Z"/><path d="M71.57,206.82a9.49,9.49,0,0,1-9.49-9.49V153.41a9.49,9.49,0,0,1,19,0v43.92A9.49,9.49,0,0,1,71.57,206.82Z"/><path d="M93.53,184.86H49.61a9.49,9.49,0,1,1,0-19H93.53a9.49,9.49,0,1,1,0,19Z"/><rect x="3.2" width="137.53" height="47.66" rx="23.83"/></g></g></svg>