<svg xmlns="http://www.w3.org/2000/svg" viewBox="0 0 63.8 56.68"><g id="Layer_2" data-name="Layer 2"><g id="Layer_1-2" data-name="Layer 1"><path d="M52.48,14.65H1a1,1,0,0,1,0-2H52.48a1,1,0,0,1,0,2Z"/><path d="M7.84,34.82a3.55,3.55,0,1,1,3.54-3.55A3.55,3.55,0,0,1,7.84,34.82Zm0-5.15a1.61,1.61,0,1,0,1.6,1.6A1.61,1.61,0,0,0,7.84,29.67Z"/><path d="M7.84,43.57A3.55,3.55,0,1,1,11.38,40,3.55,3.55,0,0,1,7.84,43.57Zm0-5.15A1.61,1.61,0,1,0,9.44,40,1.61,1.61,0,0,0,7.84,38.42Z"/><path d="M17.16,34.82a3.55,3.55,0,1,1,3.54-3.55A3.55,3.55,0,0,1,17.16,34.82Zm0-5.15a1.61,1.61,0,1,0,1.6,1.6A1.61,1.61,0,0,0,17.16,29.67Z"/><path d="M17.16,43.57A3.55,3.55,0,1,1,20.7,40,3.55,3.55,0,0,1,17.16,43.57Zm0-5.15A1.61,1.61,0,1,0,18.76,40,1.61,1.61,0,0,0,17.16,38.42Z"/><path d="M26.48,26.06A3.55,3.55,0,1,1,30,22.52,3.55,3.55,0,0,1,26.48,26.06Zm0-5.15a1.61,1.61,0,1,0,1.6,1.61A1.61,1.61,0,0,0,26.48,20.91Z"/><path d="M17.16,26.06a3.55,3.55,0,1,1,3.54-3.54A3.55,3.55,0,0,1,17.16,26.06Zm0-5.15a1.61,1.61,0,1,0,1.6,1.61A1.61,1.61,0,0,0,17.16,20.91Z"/><path d="M26.48,34.82A3.55,3.55,0,1,1,30,31.27,3.55,3.55,0,0,1,26.48,34.82Zm0-5.15a1.61,1.61,0,1,0,1.6,1.6A1.61,1.61,0,0,0,26.48,29.67Z"/><path d="M26.48,43.57A3.55,3.55,0,1,1,30,40,3.55,3.55,0,0,1,26.48,43.57Zm0-5.15A1.61,1.61,0,1,0,28.08,40,1.61,1.61,0,0,0,26.48,38.42Z"/><path d="M35.8,26.06a3.55,3.55,0,1,1,3.54-3.54A3.55,3.55,0,0,1,35.8,26.06Zm0-5.15a1.61,1.61,0,1,0,1.6,1.61A1.61,1.61,0,0,0,35.8,20.91Z"/><path d="M45.12,26.06a3.55,3.55,0,1,1,3.54-3.54A3.55,3.55,0,0,1,45.12,26.06Zm0-5.15a1.61,1.61,0,1,0,1.6,1.61A1.61,1.61,0,0,0,45.12,20.91Z"/><path d="M6,9.67a1,1,0,0,1-1-1V1A1,1,0,0,1,6.94,1V8.7A1,1,0,0,1,6,9.67Z"/><path d="M9.24,9.67a1,1,0,0,1-1-1V1a1,1,0,0,1,1.94,0V8.7A1,1,0,0,1,9.24,9.67Z"/><path d="M18.56,9.67a1,1,0,0,1-1-1V1a1,1,0,0,1,1.94,0V8.7A1,1,0,0,1,18.56,9.67Z"/><path d="M21.82,9.67a1,1,0,0,1-1-1V1a1,1,0,1,1,1.94,0V8.7A1,1,0,0,1,21.82,9.67Z"/><path d="M31.14,9.67a1,1,0,0,1-1-1V1a1,1,0,1,1,1.94,0V8.7A1,1,0,0,1,31.14,9.67Z"/><path d="M34.4,9.67a1,1,0,0,1-1-1V1a1,1,0,1,1,1.94,0V8.7A1,1,0,0,1,34.4,9.67Z"/><path d="M43.72,9.67a1,1,0,0,1-1-1V1a1,1,0,1,1,1.94,0V8.7A1,1,0,0,1,43.72,9.67Z"/><path d="M47,9.67a1,1,0,0,1-1-1V1A1,1,0,0,1,48,1V8.7A1,1,0,0,1,47,9.67Z"/><path d="M48.73,53.48A11.87,11.87,0,1,1,60.6,41.61,11.88,11.88,0,0,1,48.73,53.48Zm0-21.8a9.93,9.93,0,1,0,9.93,9.93A9.94,9.94,0,0,0,48.73,31.68Z"/><path d="M48.73,56.68A15.07,15.07,0,1,1,63.8,41.61,15.09,15.09,0,0,1,48.73,56.68Zm0-28.2A13.13,13.13,0,1,0,61.86,41.61,13.14,13.14,0,0,0,48.73,28.48Z"/><path d="M18.56,6.15H9.24a1,1,0,1,1,0-1.94h9.32a1,1,0,0,1,0,1.94Z"/><path d="M31.14,6.15H21.82a1,1,0,0,1,0-1.94h9.32a1,1,0,0,1,0,1.94Z"/><path d="M43.72,6.15H34.4a1,1,0,1,1,0-1.94h9.32a1,1,0,0,1,0,1.94Z"/><path d="M36.4,49.41H5.48A5.49,5.49,0,0,1,0,43.93V9.69A5.49,5.49,0,0,1,5.48,4.21H6A1,1,0,1,1,6,6.15H5.48A3.55,3.55,0,0,0,1.94,9.69V43.93a3.55,3.55,0,0,0,3.54,3.54H34.85A15.06,15.06,0,0,1,48.73,26.54a15.3,15.3,0,0,1,2.78.26V9.69A3.55,3.55,0,0,0,48,6.15H47a1,1,0,1,1,0-1.94h1a5.49,5.49,0,0,1,5.49,5.48V28a1,1,0,0,1-.39.77.94.94,0,0,1-.84.17,12.89,12.89,0,0,0-3.49-.48A13.13,13.13,0,0,0,37.24,48a.94.94,0,0,1,0,1A1,1,0,0,1,36.4,49.41Z"/><path d="M52.48,42.58H48.73a1,1,0,0,1-1-1V37.19a1,1,0,1,1,1.94,0v3.45h2.78a1,1,0,0,1,0,1.94Z"/></g></g></svg>