<svg xmlns="http://www.w3.org/2000/svg" viewBox="0 0 213.75 274.42"><defs><style>.cls-1{stroke:#000;stroke-miterlimit:10;stroke-width:6.07px;}</style></defs><g id="Layer_2" data-name="Layer 2"><g id="Layer_1-2" data-name="Layer 1"><path class="cls-1" d="M106.87,142.77a5.55,5.55,0,0,1-3.05-.91C69.22,119.17,33.45,95.72,23.29,9.24A5.57,5.57,0,0,1,28.82,3H184.93a5.57,5.57,0,0,1,5.53,6.21c-10.16,86.48-45.94,109.94-80.54,132.62A5.55,5.55,0,0,1,106.87,142.77ZM35.12,14.16c10.11,73.85,39.81,95.4,71.75,116.4,31.94-21,61.65-42.54,71.75-116.4Z"/><path class="cls-1" d="M184.93,271.39H28.82a5.57,5.57,0,0,1-5.53-6.21c10.16-86.47,45.93-109.93,80.53-132.62a5.58,5.58,0,0,1,6.1,0c34.6,22.69,70.38,46.14,80.54,132.62a5.57,5.57,0,0,1-5.53,6.21ZM35.12,260.26h143.5c-10.1-73.85-39.81-95.39-71.75-116.4C74.94,164.87,45.23,186.41,35.12,260.26Z"/><path d="M161.29,251.16H52.45A5.57,5.57,0,0,1,47,244.49c10.68-52.52,59.38-53.16,59.87-53.16s49.2.64,59.87,53.16a5.52,5.52,0,0,1-1.14,4.63A5.58,5.58,0,0,1,161.29,251.16Z"/><path class="cls-1" d="M205.16,14.16H8.59A5.57,5.57,0,0,1,8.59,3H205.16a5.57,5.57,0,0,1,0,11.13Z"/><path class="cls-1" d="M205.16,271.39H8.59a5.57,5.57,0,0,1,0-11.13H205.16a5.57,5.57,0,0,1,0,11.13Z"/><path d="M106.87,118.48a5.54,5.54,0,0,1-3.14-1c-20.55-14.09-36.49-29-47.53-56.27a5.56,5.56,0,0,1,5.15-7.65H152.4a5.56,5.56,0,0,1,5.15,7.65c-11,27.22-27,42.18-47.53,56.27A5.57,5.57,0,0,1,106.87,118.48Z"/></g></g></svg>