<svg xmlns="http://www.w3.org/2000/svg" viewBox="0 0 654.55 428.19"><defs><style>.cls-1{fill:#fff;}</style></defs><g id="Layer_2" data-name="Layer 2"><g id="Layer_1-2" data-name="Layer 1"><path class="cls-1" d="M278.21,0V109.28q-45.16,0-68,12.82-23.41,13.93-29,31.79-6.15,17.84-7.25,70.8H278.21v203.5H0V254.79q0-94.21,6.69-128.23Q13.38,92,45.72,58,78,25.1,124.33,12.27,169.5,0,278.21,0ZM654.55,0V109.28q-44.62,0-67.47,12.82-24,13.4-29.55,31.79-6.13,18.38-6.69,70.8H654.55v203.5H376.89V254.79q0-94.21,6.69-128.23Q390.29,92,422.61,58q32.33-32.89,78.61-45.72Q546.39,0,654.55,0Z"/></g></g></svg>