<svg xmlns="http://www.w3.org/2000/svg" viewBox="0 0 654.55 428.19"><defs><style>.cls-1{fill:#25bef4;}</style></defs><g id="Layer_2" data-name="Layer 2"><g id="Layer_1-2" data-name="Layer 1"><path class="cls-1" d="M0,428.19V318.92q44.6,0,68-13.38,23.42-13.95,29-31.79,6.13-18.4,6.69-70.8H0V0H278.21V173.4q0,93.12-6.69,127.67-6.69,35.12-39,68-31.78,33.45-78.61,46.28T0,428.19Zm376.89,0V318.92q45.17,0,67.47-13.38,22.84-13.4,29.55-31.79,6.12-18.4,6.69-70.8H376.89V0H654.55V173.4q0,93.12-6.69,127.67-6.71,35.12-39,68a164.51,164.51,0,0,1-78.06,46.28Q483.94,428.2,376.89,428.19Z"/></g></g></svg>