<svg xmlns="http://www.w3.org/2000/svg" viewBox="0 0 580.48 656.91"><defs><style>.cls-1{fill:#fff;}</style></defs><g id="Layer_2" data-name="Layer 2"><g id="Layer_1-2" data-name="Layer 1"><path class="cls-1" d="M524.14,294.59A168.73,168.73,0,1,0,290.25,51.65a168.73,168.73,0,1,0-233.88,243,2.19,2.19,0,0,0,.2.25l57.62,57.62a59.91,59.91,0,0,0-10.1-4.25,76.27,76.27,0,0,0-22.58-3.33,75.07,75.07,0,0,0-13.67,1.22,54.36,54.36,0,0,0-12.88,4h0c-7.33,3.38-14.69,7.48-20.41,10.8s-9.65,5.81-9.78,5.89a17.56,17.56,0,0,0-3,27.26l158,158v55a30,30,0,0,0,4.54,15.68,40.44,40.44,0,0,0,8.35,9.56,72.45,72.45,0,0,0,18.82,11.06c10.58,4.44,23,7.73,36.92,10a282.32,282.32,0,0,0,45.53,3.55H311.1c28.3,0,53.9-3.73,73.88-10.38,10-3.39,18.69-7.41,26-13.15a41.17,41.17,0,0,0,9.71-10.68A30.07,30.07,0,0,0,425.26,607V568.79c.2-.26.39-.46.59-.73,5.43-7.51,11.42-19.92,16.23-41.73s8.37-53.18,8.37-99.09V374.49h0v-6.17l73.47-73.47C524,294.76,524.07,294.67,524.14,294.59ZM403.65,534c-2.69,8-5.12,12-6.23,13.48l-.56.72-.07.08.07.07a17.51,17.51,0,0,0-6.72,13.62V605a26,26,0,0,1-6.07,4c-6.37,3.31-16.78,6.71-29.42,9a241.77,241.77,0,0,1-43.55,3.73H293.94c-25.06,0-47.75-3.5-62.74-8.55-7.46-2.46-12.93-5.41-15.37-7.39-.44-.36-.68-.6-.93-.84V544.43A17.65,17.65,0,0,0,209.75,532a15,15,0,0,0-1.8-1.47L62.8,385.38c2.35-1.23,4.68-2.4,6.85-3.4h0a20.4,20.4,0,0,1,4.58-1.34,41.74,41.74,0,0,1,7.26-.62,41.1,41.1,0,0,1,12.08,1.72,17.54,17.54,0,0,1,7,3.74l22.67,22.67a17.17,17.17,0,0,0,2.89,2.3,47.66,47.66,0,0,0,63.11-3.1,46.43,46.43,0,0,0,14-33.18v-175a13.34,13.34,0,1,1,26.68,0v141a17.56,17.56,0,0,0,35.12,0v-189a13.34,13.34,0,1,1,26.67,0v189a17.57,17.57,0,0,0,35.13,0V173.45a13.34,13.34,0,1,1,26.67,0V340.16a17.56,17.56,0,1,0,35.12,0V219.8a13.34,13.34,0,1,1,26.68,0V427.24C415.36,486,409.08,518,403.65,534ZM168.8,35.13a133.42,133.42,0,0,1,107.35,54,17.56,17.56,0,0,0,28.19,0A133.66,133.66,0,1,1,499.85,269.24c-.28.24-.5.51-.76.77h0l-48.64,48.63V219.8a48.31,48.31,0,0,0-61.8-46.55,48.47,48.47,0,0,0-67.28-44.46,48.44,48.44,0,0,0-91.43,22.34v1.5a48.42,48.42,0,0,0-61.8,46.57V356.74L81.4,270h0c-.25-.26-.48-.54-.76-.78A133.65,133.65,0,0,1,168.8,35.13Z"/></g></g></svg>