<svg xmlns="http://www.w3.org/2000/svg" viewBox="0 0 415.1 582.73"><defs><style>.cls-1{fill:#fff;}</style></defs><g id="Layer_2" data-name="Layer 2"><g id="Layer_1-2" data-name="Layer 1"><path class="cls-1" d="M65.17,321.12a11.72,11.72,0,0,0,.55,1.26A21.89,21.89,0,0,1,67.15,327a76.43,76.43,0,0,1,1.35,10.54c.1,1.56.15,2.9.18,3.82,0,.45,0,.81,0,1v.28h0a13.08,13.08,0,0,0,13,13.08l95.61.3a13.09,13.09,0,1,0,.08-26.18L94,329.65c-.29-2.56-.68-5.27-1.28-8.09a47.09,47.09,0,0,0-3.24-10c-7.45-19.59-19.32-34.79-30.22-48.45-10.87-13.51-20.7-25.63-26.23-38.29a171.38,171.38,0,0,1-6.88-48.66c0-25.67,5.34-51.88,15.19-76.7,11.27-22.33,29.88-40.57,52-53.21s48-19.68,72.47-19.66c1.94,0,3.89,0,5.82.13A13.09,13.09,0,1,0,172.88.54h0q-3.49-.17-7-.16c-29.35,0-59.24,8.16-85.45,23.1S31.65,60.32,17.72,88.15l-.44,1C6.14,117,0,146.62,0,176.13A197.56,197.56,0,0,0,8.17,233a11.07,11.07,0,0,0,.5,1.4c7.62,17.63,19.42,31.5,30.17,45S59.53,306,65.17,321.12Z"/><path class="cls-1" d="M279.53,396.4a13.08,13.08,0,0,0-13.09-13.09H78A13.08,13.08,0,0,0,64.93,396.4c0,1.75,0,20.08,0,45.71v.09c0,12.08,0,25.75.06,40.1,0,.24-.07.47-.07.72a13,13,0,0,0,6.35,11.17l56,57.86c3.74,7.59,8.5,14.81,15.43,20.53A43.64,43.64,0,0,0,156,580.09a48.07,48.07,0,0,0,16.07,2.64,45.88,45.88,0,0,0,16.37-2.9A47,47,0,0,0,206.86,567a72.06,72.06,0,0,0,10.15-15l58.38-60.16.2-.2,0,0h0a13,13,0,0,0,3.72-9.09C279.41,437.5,279.53,399,279.53,396.4Zm-84.9,141.84c-2.93,6-6.33,10.84-9.86,13.78a18.77,18.77,0,0,1-5.55,3.32,19.62,19.62,0,0,1-7.12,1.21,21.66,21.66,0,0,1-7.35-1.15,18.73,18.73,0,0,1-7.82-5.42,44.12,44.12,0,0,1-7-11.23,13.11,13.11,0,0,0-3.36-4.47l-37-38.17H202a13.09,13.09,0,0,0,0-26.18H91.2c0-5,0-9.94,0-14.69H221.83a13.09,13.09,0,0,0,0-26.18H91.14c0-7.68,0-14.31,0-19.57h162.2c0,14.52-.11,39.53-.16,67.6l-55.84,57.52A13.09,13.09,0,0,0,194.63,538.24Z"/><path class="cls-1" d="M366.84,245.14A145,145,0,0,0,375.6,224l28.57-8.92a13,13,0,0,0,9.05-10.62,177.35,177.35,0,0,0,0-51.51,13,13,0,0,0-9.05-10.62l-28.57-8.92a145.09,145.09,0,0,0-8.76-21.12l13.92-26.54a13.1,13.1,0,0,0-1.11-13.92,179.67,179.67,0,0,0-36.46-36.45,13,13,0,0,0-13.9-1.11L302.73,48.21a145.7,145.7,0,0,0-21.12-8.75L272.7,10.89a13.09,13.09,0,0,0-10.62-9.06A180.12,180.12,0,0,0,237.61,0a13.09,13.09,0,1,0-.2,26.18c4.34,0,8.61.3,12.84.68l8.43,27a13.12,13.12,0,0,0,9.08,8.74,120.18,120.18,0,0,1,28.41,11.78,13.1,13.1,0,0,0,12.59.25l25.09-13.14a153.39,153.39,0,0,1,19.74,19.74l-13.14,25.08a13.09,13.09,0,0,0,.24,12.6,119.28,119.28,0,0,1,11.78,28.4,13.12,13.12,0,0,0,8.74,9.08l27,8.43c.43,4.6.72,9.23.72,13.93s-.3,9.34-.72,13.94l-27,8.42a13.12,13.12,0,0,0-8.74,9.08,119.28,119.28,0,0,1-11.78,28.4,13.09,13.09,0,0,0-.24,12.6l13.14,25.08A154,154,0,0,1,333.85,296l-25.09-13.14a13.09,13.09,0,0,0-12.6.25,118.91,118.91,0,0,1-28.4,11.77,13.06,13.06,0,0,0-9.09,8.77l-8.12,26.28h-13a13.09,13.09,0,0,0,0,26.18H260.2a13.12,13.12,0,0,0,12.51-9.23L281.63,318a144.89,144.89,0,0,0,21.11-8.74l26.54,13.91a13.08,13.08,0,0,0,13.91-1.1,180,180,0,0,0,36.46-36.46,13.08,13.08,0,0,0,1.11-13.91Z"/><path class="cls-1" d="M231.39,257.94a13.09,13.09,0,0,0,10.2,24.11,112.92,112.92,0,0,0-6.66-210.57,13.09,13.09,0,0,0-8.64,24.71h0a86.74,86.74,0,0,1,5.1,161.75Z"/></g></g></svg>