<svg xmlns="http://www.w3.org/2000/svg" viewBox="0 0 403.78 403.79"><defs><style>.cls-1{fill:#fff;}</style></defs><g id="Layer_2" data-name="Layer 2"><g id="Layer_1-2" data-name="Layer 1"><path class="cls-1" d="M392.18,190.3H374.25c-5.73-86-74.73-155-160.77-160.76V11.6a11.6,11.6,0,1,0-23.19,0V29.54c-86,5.73-155,74.72-160.76,160.76H11.6a11.6,11.6,0,1,0,0,23.19H29.53c5.73,86,74.73,155,160.76,160.76v17.94a11.6,11.6,0,1,0,23.19,0V374.25c86-5.73,155-74.73,160.77-160.76h17.93a11.6,11.6,0,1,0,0-23.19ZM213.48,351V319.35a11.6,11.6,0,1,0-23.19,0V351A149.81,149.81,0,0,1,52.77,213.49H84.42a11.6,11.6,0,0,0,0-23.19H52.77A149.81,149.81,0,0,1,190.29,52.78V84.43a11.6,11.6,0,0,0,23.19,0V52.78C286.73,58.42,345.36,117.06,351,190.3H319.34a11.6,11.6,0,1,0,0,23.19H351C345.36,286.73,286.73,345.37,213.48,351Z"/><path class="cls-1" d="M201.89,123.23a78.67,78.67,0,1,0,78.66,78.66A78.75,78.75,0,0,0,201.89,123.23Zm0,137.17a58.51,58.51,0,1,1,58.5-58.51A58.58,58.58,0,0,1,201.89,260.4Z"/></g></g></svg>