<svg xmlns="http://www.w3.org/2000/svg" viewBox="0 0 489.04 557.26"><defs><style>.cls-1{fill:#fff;}</style></defs><g id="Layer_2" data-name="Layer 2"><g id="Layer_1-2" data-name="Layer 1"><path class="cls-1" d="M238.63,555.53l5.89,1.73,5.89-1.73c103.06-30.2,183.42-102.17,220.48-197.45,20-51.48,18.77-107,17.57-160.76-.26-11.6-.52-23.1-.55-34.39q0-25.23.06-50.45c.06-22.53.12-45,0-67.58l-.08-15.45L473.08,25c-3.37-1-84.27-25-228.56-25C103.4,0,19.66,23.9,16.17,24.91l-15,4.37L1.08,44.9c-.14,22.61-.07,45.23,0,67.84,0,16.73.09,33.46.05,50.19,0,11.29-.28,22.78-.54,34.38C-.62,251-1.87,306.6,18.15,358.08,55.21,453.36,135.57,525.33,238.63,555.53ZM431.85,342.9c-31.6,81.26-99.68,143.17-187.33,170.65A314.56,314.56,0,0,1,180.2,485.2c144.43-88.92,225.05-187.11,266.92-252.92C447.27,270.84,445,309.14,431.85,342.9Zm14.24-230.53q0,16.5,0,33c-9.49,23.42-80.31,181.68-303.75,313.72a285.71,285.71,0,0,1-46.68-48c106.85-49.48,189.85-142.76,241.75-214.45A1021.79,1021.79,0,0,0,422.63,56.56c9.55,1.76,17.48,3.42,23.51,4.79C446.18,78.35,446.13,95.36,446.09,112.37ZM42.45,198.25c.26-11.6.53-23.59.56-35.23,0-16.8,0-33.6-.06-50.39q-.08-25.6-.05-51.2c29.26-6.56,100-19.54,201.62-19.54a1077.85,1077.85,0,0,1,134.43,8c-35.44,67.91-144.39,254-306.45,325.69A278.14,278.14,0,0,1,57.19,342.9C40.19,299.19,41.34,247.88,42.45,198.25Zm99.31,44.86L85.28,186.62,114.89,157l26.87,26.86,81.51-81.51L252.88,132Z"/></g></g></svg>