<svg xmlns="http://www.w3.org/2000/svg" viewBox="0 0 462.39 257.43"><defs><style>.cls-1{fill:#fff;}</style></defs><g id="Layer_2" data-name="Layer 2"><g id="Layer_1-2" data-name="Layer 1"><path class="cls-1" d="M462.29,187.24l-21.21-160a11.67,11.67,0,0,0-13.23-10L366.75,26a11.64,11.64,0,0,0-7.57,4.46,529.89,529.89,0,0,0-77.3-23.22c-55.13-11.85-94.93-9.13-118.5,8L94.54,18.47l-60-8.66a11.67,11.67,0,0,0-13.23,10L.1,179.88a11.66,11.66,0,0,0,11.39,13.19l61.19.92h.18a11.66,11.66,0,0,0,11-7.85l3.19-9.22,105.87,71.6a10.13,10.13,0,0,0,1.35.79c8.33,4.14,20.53,8.12,32.52,8.12,10.6,0,21-3.11,28.5-12a50.74,50.74,0,0,0,13,1.82,41,41,0,0,0,5.17-.32c10.25-1.31,19-6.63,25.43-15.39a11.56,11.56,0,0,0,2.21-6.93c.74,0,1.47,0,2.21-.09,13-1.1,24.48-8,33.19-20.06a11.55,11.55,0,0,0,1.58-3.21,28.94,28.94,0,0,0,15.41-7l.15-.09c4.54-3.17,11.63-12,18-20.6l6.89,19.91a11.66,11.66,0,0,0,11,7.85h.18l61.19-.92a11.67,11.67,0,0,0,11.39-13.2ZM25,169.94,42.89,34.6l41.26,5.95c2.43,24-7,80.88-14.4,115.05l-5.17,14.93Zm276.46,31.34C287.9,202.46,272,190.17,267,185.36a11.57,11.57,0,0,0-.91-.8L239.05,163a11.67,11.67,0,1,0-14.54,18.26l26.65,21.21a93.63,93.63,0,0,0,26.93,17.62,12.71,12.71,0,0,1-7.53,3.69c-11.26,1.45-26.78-8.74-31.44-12.52L212,189.72A11.67,11.67,0,0,0,197.51,208l27,21.45c.67.55,2.82,2.25,6,4.38-9.36,1.5-22.39-3.89-25.23-5.15L94,153.46c2-9.71,5.42-27.42,8.39-46.92,5.22-34.31,5.87-53.9,5.16-65.32l34-1.59c-11.35,19.17-14.09,40.72-9.87,56.28,3.56,13.15,12,21.79,23.05,23.71,15.81,2.73,32.86-8.25,50.72-32.66l16-3.07c15.43,9.68,72.77,45.79,97.68,63.42,8.65,6.12,18.9,14.33,21.41,23.58a5.93,5.93,0,0,1-1.86,5.32c-.56.57-2.54,2.4-4.87,1.84-19.09-4.54-41.88-19.19-61-39.2A11.66,11.66,0,0,0,256,154.94c8.95,9.39,30.51,29.86,57.23,40.82A19.66,19.66,0,0,1,301.42,201.28Zm61.91-56.47c-1.75,2.6-3.63,5.31-5.53,8-6.43-10.36-16.42-18.37-25.15-24.55C303.32,107.51,233,63.53,230,61.67a11.65,11.65,0,0,0-8.38-1.56l-25.07,4.82a11.64,11.64,0,0,0-7.38,4.8c-15.79,22.71-26.84,27.51-30.37,26.9-1.7-.3-3.47-3-4.51-6.82-3.35-12.38.88-37.36,20.79-54.15C192,21.35,227.17,19.38,276.68,30a518.83,518.83,0,0,1,73.84,22.13,11.62,11.62,0,0,0,4.1.8c-.31,11.86.73,30.68,5.35,61,1.6,10.53,3.34,20.53,4.92,29A11.3,11.3,0,0,0,363.33,144.81ZM397.8,177.9l-5.17-15c-7.4-34.16-16.83-91-14.4-115l41.27-6,17.93,135.34Z"/></g></g></svg>