<svg xmlns="http://www.w3.org/2000/svg" viewBox="0 0 584.48 307.86"><defs><style>.cls-1{fill:#fff;}</style></defs><g id="Layer_2" data-name="Layer 2"><g id="Layer_1-2" data-name="Layer 1"><path class="cls-1" d="M137.24,113.67a77.36,77.36,0,0,0-93.45,57A7,7,0,0,0,49,179.1a6.87,6.87,0,0,0,1.66.21,7,7,0,0,0,6.82-5.37,63.34,63.34,0,0,1,76.48-46.63,7,7,0,0,0,3.32-13.64Z"/><path class="cls-1" d="M581.11,160.77a117.94,117.94,0,0,0-18-39.8L531,67.15l-.78-1.3c-5.9-9.35-11.34-17.32-16.66-24.38C498.29,21.23,484.61,9.68,469.21,4c-13.94-5.14-29.44-5.35-48.78-.64-.89.21-1.78.45-2.62.68a91.09,91.09,0,0,0-36.08,19.26A92.78,92.78,0,0,0,364.07,44l-9.69-2.64c-2.11-.56-5.16-1.27-8.78-2a272.08,272.08,0,0,0-34.6-4.9A47.15,47.15,0,0,0,274.85,34c-7.86.43-15.77,1.21-23.52,2.29-12.65,1.78-20.7,3.17-24.6,4.23l-7.27,2a92.84,92.84,0,0,0-16.71-19.15A91,91,0,0,0,166.7,4.07c-.87-.24-1.76-.48-2.69-.71-19.3-4.67-34.8-4.47-48.73.66C99.88,9.68,86.19,21.23,70.9,41.48,65.59,48.53,60.15,56.5,54.18,66L21.41,121a117.85,117.85,0,0,0-18,39.8C-12.1,224.54,27.18,289,90.89,304.47a114.31,114.31,0,0,0,13,2.4,121.59,121.59,0,0,0,15.4,1,119.18,119.18,0,0,0,118-131.75c-.08-2.69-.19-6-.32-9.75a63.38,63.38,0,0,0,110.51-.17c-.14,3.83-.25,7.18-.33,9.92a119.21,119.21,0,0,0,118,131.75,121.55,121.55,0,0,0,15.39-1,114.54,114.54,0,0,0,13-2.39A119.14,119.14,0,0,0,581.11,160.77ZM350.26,109.65a63.92,63.92,0,0,0-5.42-9.84,62.45,62.45,0,0,1,5.82,3.94Q350.45,106.68,350.26,109.65Zm15.07,6.75c.3-5.06.64-10,1-14.83a100.39,100.39,0,0,1,145-36.52q2.85,4.29,5.79,8.93l6.71,11.27A117.67,117.67,0,0,0,480.9,70.88a119.43,119.43,0,0,0-43.44,2.39,118.17,118.17,0,0,0-72.66,52.28C365,122.5,365.14,119.44,365.33,116.4ZM391.87,35a75.79,75.79,0,0,1,30-16l2.23-.59c16.18-3.92,28.81-3.87,39.76.15,9.25,3.4,18,9.78,27.37,20.11A115.56,115.56,0,0,0,369.59,70.83a37.21,37.21,0,0,1,1.71-7.4A77.61,77.61,0,0,1,391.87,35ZM350.33,56.24,356.82,58c-1.29,3.31-2.92,9.81-4.7,28.12a85.81,85.81,0,0,0-8.42-4.36c0-.14,0-.27,0-.41a57.44,57.44,0,0,0-10.25-28.63q4.53.78,9,1.71C345.7,55.11,348.44,55.73,350.33,56.24ZM327.24,76a127.86,127.86,0,0,0-27.48-3.85,65.19,65.19,0,0,0-7.57-.46,63.58,63.58,0,0,0-11.86,1.12,144.58,144.58,0,0,0-23.12,4.25C261,59.3,275.6,46,292.42,46,308.89,46,323.18,58.78,327.24,76ZM67.34,74.1q3-4.72,5.86-9a100.44,100.44,0,0,1,145,36.52c.36,4.8.7,9.77,1,14.85.19,3,.37,6.09.53,9.12A118.2,118.2,0,0,0,147,73.27a119.48,119.48,0,0,0-43.45-2.39A117.78,117.78,0,0,0,60.69,85.25ZM233.84,104q2.35-1.58,4.95-3a64.65,64.65,0,0,0-4.58,8.48C234.09,107.63,234,105.81,233.84,104Zm-3.05-48.59c2.14-.58,7.59-1.68,21.23-3.62A57.73,57.73,0,0,0,241,81.36c0,.45,0,.9-.06,1.36q-4.42,1.89-8.48,4.1c-1.91-19.91-3.64-26.18-5-29.37-.14-.33-.29-.67-.44-1ZM120.61,18.54c10.94-4,23.57-4.07,39.71-.16l2.29.6a75.74,75.74,0,0,1,30,16,77.42,77.42,0,0,1,20.58,28.41,37.64,37.64,0,0,1,1.71,7.41A115.36,115.36,0,0,0,93.23,38.65C102.61,28.32,111.35,21.94,120.61,18.54Zm98.94,194.74a103.24,103.24,0,0,1-113.7,78.24,98.91,98.91,0,0,1-11.28-2.07,103.65,103.65,0,0,1-76.17-125,102.61,102.61,0,0,1,12.8-30.26,7.64,7.64,0,0,0,1.33-1.64l2-3.37a103.92,103.92,0,0,1,71-42.94,103.64,103.64,0,0,1,116.31,91.12c.12,4.06.19,6.58.2,6.95a7.78,7.78,0,0,0,.4,2.27A104.37,104.37,0,0,1,219.55,213.28Zm72.64-30.14a48,48,0,0,1-11.46-94.56,134,134,0,0,1,19.83-.64,48,48,0,0,1-8.37,95.2Zm197.7,106.31a97.53,97.53,0,0,1-11.27,2.07A103.66,103.66,0,0,1,362,186.56a8.14,8.14,0,0,0,.41-2.27c0-.37.07-2.88.19-6.95a103.45,103.45,0,0,1,187.34-48.2l2,3.39a8.29,8.29,0,0,0,1.33,1.65,102.23,102.23,0,0,1,12.8,30.24A103.66,103.66,0,0,1,489.89,289.45Z"/><path class="cls-1" d="M484,113.67a77.35,77.35,0,0,0-93.45,57,7,7,0,0,0,5.16,8.48,6.88,6.88,0,0,0,1.67.21,7,7,0,0,0,6.82-5.37,63.34,63.34,0,0,1,76.48-46.63A7,7,0,1,0,484,113.67Z"/></g></g></svg>