<svg xmlns="http://www.w3.org/2000/svg" viewBox="0 0 359.5 293.16"><defs><style>.cls-1{fill:#0091d0;}.cls-2{fill:#0f385a;}.cls-3{fill:#153c5e;}</style></defs><g id="Layer_2" data-name="Layer 2"><g id="Layer_4" data-name="Layer 4"><path class="cls-1" d="M128.77,107.74l-.84-.59A131.76,131.76,0,0,1,89.07,63.79,42.29,42.29,0,0,1,136.43,1.45,42.44,42.44,0,0,1,165,27.18a119.78,119.78,0,0,1,6.12,73.52l-.38,1.64-1.66-.27a68.15,68.15,0,0,0-39.36,5.25ZM125.5,3.59A38.71,38.71,0,0,0,92.18,62a128.32,128.32,0,0,0,37,41.62A71.7,71.7,0,0,1,168,98.27a116.14,116.14,0,0,0-6.32-69.73l0-.05A38.83,38.83,0,0,0,135.5,4.92,38.41,38.41,0,0,0,125.5,3.59Z"/><path class="cls-1" d="M180,129l-1.94-.38c-2.93-.59-5.77-1.25-8.45-2s-5.43-1.55-8.3-2.52l-1.87-.64.81-1.8a118.93,118.93,0,0,0,6.39-17.91c.34-1.29.66-2.6,1-3.9l.38-1.64,1.66.27c2.37.39,4.76.91,7.1,1.53a72.14,72.14,0,0,1,6.91,2.23l1.58.59-.5,1.61c-.39,1.28-.76,2.56-1.11,3.87a116.8,116.8,0,0,0-3.42,18.7Zm-15.67-7.66c2.12.69,4.16,1.3,6.21,1.84s4.13,1,6.3,1.52a119.91,119.91,0,0,1,3.31-17.29c.21-.79.43-1.58.66-2.35-1.65-.58-3.33-1.1-5-1.55s-3.39-.84-5.1-1.16c-.19.79-.39,1.58-.6,2.36A122.53,122.53,0,0,1,164.34,121.35Z"/><path class="cls-1" d="M162.86,124.66l-1.54-.52a130.44,130.44,0,0,1-33.39-17l-2.56-1.81,2.85-1.29a71.65,71.65,0,0,1,41.43-5.53l1.9.31-.44,1.87q-.47,2-1,4a122,122,0,0,1-6.58,18.45Zm-30.19-18.61a127,127,0,0,0,28.25,14.15,118.58,118.58,0,0,0,5.73-16.41c.17-.67.35-1.34.51-2A68.17,68.17,0,0,0,132.67,106.05Z"/><path class="cls-1" d="M203.62,131.15a131,131,0,0,1-25.55-2.52l-1.6-.32.16-1.63a121.59,121.59,0,0,1,3.53-19.26c.36-1.34.75-2.67,1.15-4l.56-1.83,1.79.68a71.78,71.78,0,0,1,33.12,25.49l1.82,2.55-3.12.29Q209.57,131.15,203.62,131.15Zm-23.24-5.74a127,127,0,0,0,31.54,1.88,68.07,68.07,0,0,0-27.73-20.94c-.19.66-.38,1.33-.56,2h0A118.31,118.31,0,0,0,180.38,125.41Z"/><path class="cls-1" d="M195,44.61A12.49,12.49,0,1,1,207,35.35h0A12.52,12.52,0,0,1,195,44.61Zm0-21.39a8.9,8.9,0,1,0,8.6,11.2h0a8.91,8.91,0,0,0-6.29-10.9A9.21,9.21,0,0,0,195,23.22Z"/><path class="cls-1" d="M202.06,177.54a25,25,0,0,1-24.85-22,120,120,0,0,1-.58-28.85l.2-2,1.94.38a127.46,127.46,0,0,0,23.44,2.45,128.27,128.27,0,0,0,12.94-.52l1-.09.6.83a73.25,73.25,0,0,1,8.22,15,25,25,0,0,1-22.94,34.81ZM180,129a116.53,116.53,0,0,0,.74,26.06,21.4,21.4,0,1,0,40.92-10.93l0,0a68.7,68.7,0,0,0-7.23-13.4c-4,.34-8.1.49-12.19.44A131,131,0,0,1,180,129Z"/><path class="cls-1" d="M214.5,130.69l-.6-.83a68.22,68.22,0,0,0-31.47-24.23l-1.57-.59.49-1.61A119.82,119.82,0,0,1,222.8,43.29,42.29,42.29,0,0,1,290.88,86.6h0A42.07,42.07,0,0,1,273.32,111v0l-1.59,1a131.68,131.68,0,0,1-56.22,18.65Zm-29.22-27.8a71.79,71.79,0,0,1,30.93,24,128.28,128.28,0,0,0,52.06-17.07h0l1.61-1a38.7,38.7,0,1,0-44.82-62.79A116.31,116.31,0,0,0,185.28,102.89Z"/><path class="cls-1" d="M128.66,157.87a25.1,25.1,0,0,1-6.51-.86,25,25,0,0,1-8.55-44.1,72.24,72.24,0,0,1,14.62-8.86l.94-.43.84.59a126.68,126.68,0,0,0,32.47,16.53l1.88.63-.81,1.8a120.09,120.09,0,0,1-15.06,24.88A24.92,24.92,0,0,1,128.66,157.87Zm.12-50.12a68.67,68.67,0,0,0-13,8,21.39,21.39,0,1,0,29.85,30.08,116.2,116.2,0,0,0,13.81-22.36A130.31,130.31,0,0,1,128.78,107.75Z"/><path class="cls-2" d="M51.33,211.59a16.63,16.63,0,0,1,18.18-3.67,17.57,17.57,0,0,1,5.61,3.76,1.76,1.76,0,1,0,2.5-2.48v0a20.63,20.63,0,0,0-6.72-4.52,20.36,20.36,0,0,0-13.29-.76A20,20,0,0,0,52.69,206a19.69,19.69,0,0,0-4.08,3.29,20.59,20.59,0,0,0-5,8.93,20.43,20.43,0,0,0,0,10.64,20.15,20.15,0,0,0,2,4.85,20.37,20.37,0,0,0,3.15,4.12A19.92,19.92,0,0,0,52.89,241a20.58,20.58,0,0,0,4.84,2,19.67,19.67,0,0,0,5.4.74,21,21,0,0,0,7.67-1.44,19.38,19.38,0,0,0,6.78-4.5,1.7,1.7,0,0,0,.5-1.24,1.78,1.78,0,0,0-.56-1.31,1.81,1.81,0,0,0-2.46.09,16.42,16.42,0,0,1-5.59,3.7,17.34,17.34,0,0,1-12.94-.21,16.66,16.66,0,0,1-8.81-9,16.87,16.87,0,0,1,0-12.94A17.16,17.16,0,0,1,51.33,211.59Z"/><path class="cls-2" d="M99.87,203.93a1.67,1.67,0,0,0-.52,1.27v36.45a1.74,1.74,0,0,0,1.76,1.76,1.76,1.76,0,0,0,1.76-1.76V205.2a1.71,1.71,0,0,0-.52-1.27A1.81,1.81,0,0,0,99.87,203.93Z"/><path class="cls-2" d="M152.27,207a1.66,1.66,0,0,0,1.26-.54,1.8,1.8,0,0,0,0-2.52,1.74,1.74,0,0,0-1.25-.49H128.4a1.88,1.88,0,0,0-1.25.45,1.64,1.64,0,0,0-.57,1.31v36.36a1.91,1.91,0,0,0,.42,1.23,1.68,1.68,0,0,0,1.2.62h24.15a1.61,1.61,0,0,0,1.18-.5,1.8,1.8,0,0,0,.51-1.29,1.76,1.76,0,0,0-1.77-1.76H130.1v-15.1h16.62a1.71,1.71,0,0,0,1.26-.5,1.69,1.69,0,0,0,.5-1.23,1.84,1.84,0,0,0-.48-1.26,1.61,1.61,0,0,0-1.28-.54H130.1V207Z"/><path class="cls-2" d="M200.51,239.89l-21.41,0V205.23a1.74,1.74,0,0,0-.51-1.28,1.79,1.79,0,0,0-2.5,0,1.74,1.74,0,0,0-.51,1.28v36.42a1.71,1.71,0,0,0,.41,1.16,1.83,1.83,0,0,0,1.13.6h23.46a1.58,1.58,0,0,0,1.16-.5,1.76,1.76,0,0,0,.53-1.29,1.68,1.68,0,0,0-.54-1.25A1.76,1.76,0,0,0,200.51,239.89Z"/><path class="cls-2" d="M253,203.92a1.67,1.67,0,0,0-.55,1.28v21.15a14,14,0,0,1-1.06,5.45,13.68,13.68,0,0,1-7.29,7.38,14.15,14.15,0,0,1-10.77,0,14.31,14.31,0,0,1-4.48-2.93,14,14,0,0,1-3-4.4,13.18,13.18,0,0,1-1.12-5.44V205.29a1.71,1.71,0,0,0-.52-1.27,1.82,1.82,0,0,0-2.49,0,1.71,1.71,0,0,0-.52,1.27v21.13a16.87,16.87,0,0,0,.63,4.61,17.84,17.84,0,0,0,1.77,4.16,17.15,17.15,0,0,0,2.76,3.53,18.24,18.24,0,0,0,3.55,2.71,17.94,17.94,0,0,0,4.18,1.75,17.18,17.18,0,0,0,4.66.63,16.88,16.88,0,0,0,6.76-1.37,17.33,17.33,0,0,0,9.19-9.25,17.16,17.16,0,0,0,1.35-6.77V205.2a1.73,1.73,0,0,0-.5-1.27A1.86,1.86,0,0,0,253,203.92Z"/><path class="cls-2" d="M314.21,204a1.68,1.68,0,0,0-2-.36,1.62,1.62,0,0,0-.59.4l-15.19,19-15.34-19.07a1.91,1.91,0,0,0-.55-.33,1,1,0,0,0-.25-.1l-.21,0a1.53,1.53,0,0,0-1.48.49,1.71,1.71,0,0,0-.51,1.25v36.45a1.71,1.71,0,0,0,.51,1.25,1.79,1.79,0,0,0,2.5,0,1.71,1.71,0,0,0,.51-1.25V210.11l13.23,16.43a2.34,2.34,0,0,0,.59.7,1.52,1.52,0,0,0,1,.33,1,1,0,0,0,.35,0,3,3,0,0,0,.46-.18l.11-.09a2.85,2.85,0,0,0,.38-.31l13.45-16.83v31.54a1.66,1.66,0,0,0,.54,1.25,1.7,1.7,0,0,0,1.22.51,1.74,1.74,0,0,0,1.26-.51,1.66,1.66,0,0,0,.54-1.25V205.2A1.71,1.71,0,0,0,314.21,204Z"/><path class="cls-3" d="M14.65,268.23a7.37,7.37,0,0,1,0,10.77A9.79,9.79,0,0,1,8.21,281H3v6.38H0V266.28H8.21A9.79,9.79,0,0,1,14.65,268.23Zm-2.17,8.89a4.82,4.82,0,0,0,0-7,6.78,6.78,0,0,0-4.36-1.22H3v9.45H8.12A6.78,6.78,0,0,0,12.48,277.12Z"/><path class="cls-3" d="M21.29,265h2.89v22.32H21.29Z"/><path class="cls-3" d="M44,280.32H31.1A5,5,0,0,0,33,283.71,6,6,0,0,0,36.88,285a5.93,5.93,0,0,0,4.6-1.92l1.59,1.86a6.9,6.9,0,0,1-2.69,1.93,9.37,9.37,0,0,1-3.59.66,9.47,9.47,0,0,1-4.49-1,7.41,7.41,0,0,1-3-2.9,8.34,8.34,0,0,1-1.07-4.21,8.47,8.47,0,0,1,1-4.18,7.39,7.39,0,0,1,2.86-2.9,8,8,0,0,1,4.1-1,7.89,7.89,0,0,1,4.08,1,7.31,7.31,0,0,1,2.8,2.9,8.86,8.86,0,0,1,1,4.27A8.25,8.25,0,0,1,44,280.32Zm-11.29-5.38a5.09,5.09,0,0,0-1.64,3.31H41.33a5.16,5.16,0,0,0-1.64-3.3,5.37,5.37,0,0,0-6.95,0Z"/><path class="cls-3" d="M61.43,273a6.89,6.89,0,0,1,1.79,5.16v9.17H60.34v-8.84A4.85,4.85,0,0,0,59.22,275,4.18,4.18,0,0,0,56,273.82a5,5,0,0,0-3.7,1.37A5.33,5.33,0,0,0,51,279.12v8.21H48.09V271.39h2.77v2.4a5.61,5.61,0,0,1,2.36-1.89,8.3,8.3,0,0,1,3.39-.66A6.54,6.54,0,0,1,61.43,273Z"/><path class="cls-3" d="M68.62,267.78a1.77,1.77,0,0,1-.55-1.33,1.8,1.8,0,0,1,.55-1.33,1.91,1.91,0,0,1,1.4-.56,2,2,0,0,1,1.4.53A1.72,1.72,0,0,1,72,266.4a1.85,1.85,0,0,1-.56,1.36,1.91,1.91,0,0,1-1.4.56A1.93,1.93,0,0,1,68.62,267.78Zm0,3.61h2.89v15.94H68.58Z"/><path class="cls-3" d="M85.93,286.4a4.29,4.29,0,0,1-1.56.82,6.54,6.54,0,0,1-1.93.29,5.14,5.14,0,0,1-3.73-1.29,5,5,0,0,1-1.32-3.7v-8.76H74.68v-2.37h2.71V267.9h2.89v3.49h4.57v2.37H80.28v8.64a2.79,2.79,0,0,0,.64,2,2.44,2.44,0,0,0,1.86.69,3.47,3.47,0,0,0,2.25-.75Z"/><path class="cls-3" d="M104.28,271.39v15.94h-2.74v-2.41a5.73,5.73,0,0,1-2.3,1.91,7.19,7.19,0,0,1-3.11.68,7,7,0,0,1-5-1.76,6.83,6.83,0,0,1-1.84-5.19v-9.17h2.89v8.84a5,5,0,0,0,1.11,3.51,4.17,4.17,0,0,0,3.19,1.18,4.77,4.77,0,0,0,3.61-1.38,5.44,5.44,0,0,0,1.32-3.91v-8.24Z"/><path class="cls-3" d="M124.82,265v22.32h-2.76V284.8a6.21,6.21,0,0,1-2.44,2,7.57,7.57,0,0,1-3.25.69,8.4,8.4,0,0,1-4.15-1,7.29,7.29,0,0,1-2.87-2.88,8.55,8.55,0,0,1-1-4.25,8.46,8.46,0,0,1,1-4.24,7.37,7.37,0,0,1,2.87-2.86,8.4,8.4,0,0,1,4.15-1,7.66,7.66,0,0,1,3.16.64,6.32,6.32,0,0,1,2.41,1.91V265Zm-5.47,19.27a5,5,0,0,0,1.92-2,6.48,6.48,0,0,0,0-5.86,4.8,4.8,0,0,0-1.92-2,5.73,5.73,0,0,0-5.49,0,4.92,4.92,0,0,0-1.92,2,6.4,6.4,0,0,0,0,5.86,5.11,5.11,0,0,0,1.92,2,5.73,5.73,0,0,0,5.49,0Z"/><path class="cls-3" d="M151,272.26a7.37,7.37,0,0,1,2.87,2.86,8.36,8.36,0,0,1,1,4.24,8.45,8.45,0,0,1-1,4.25,7.29,7.29,0,0,1-2.87,2.88,8.4,8.4,0,0,1-4.15,1,7.39,7.39,0,0,1-3.14-.66,6.46,6.46,0,0,1-2.42-1.93v8.24h-2.89V271.39h2.77v2.52a6.21,6.21,0,0,1,2.43-2,7.75,7.75,0,0,1,3.25-.67A8.4,8.4,0,0,1,151,272.26Zm-1.64,12a5.06,5.06,0,0,0,1.93-2,6.48,6.48,0,0,0,0-5.86,4.88,4.88,0,0,0-1.93-2,5.66,5.66,0,0,0-5.47,0,5.15,5.15,0,0,0-1.93,2,5.9,5.9,0,0,0-.7,2.92,6.07,6.07,0,0,0,.69,2.93,5,5,0,0,0,1.92,2,5.45,5.45,0,0,0,2.74.7A5.38,5.38,0,0,0,149.35,284.28Z"/><path class="cls-3" d="M169.63,272.86a6.28,6.28,0,0,1,1.76,4.84v9.63h-2.74v-2.11a4.51,4.51,0,0,1-2.06,1.7,7.7,7.7,0,0,1-3.17.59,6.65,6.65,0,0,1-4.29-1.29,4.16,4.16,0,0,1-1.61-3.4,4.2,4.2,0,0,1,1.53-3.39c1-.85,2.65-1.27,4.88-1.27h4.57v-.58a3.67,3.67,0,0,0-1.08-2.85,4.6,4.6,0,0,0-3.19-1,8.44,8.44,0,0,0-2.77.47,7.17,7.17,0,0,0-2.29,1.25l-1.2-2.17a8.77,8.77,0,0,1,2.95-1.52,12.32,12.32,0,0,1,3.64-.52A7.25,7.25,0,0,1,169.63,272.86Zm-2.88,11.69a4.19,4.19,0,0,0,1.75-2.09v-2.23h-4.45q-3.68,0-3.67,2.47a2.23,2.23,0,0,0,.93,1.89,4.26,4.26,0,0,0,2.59.69A5.35,5.35,0,0,0,166.75,284.55Z"/><path class="cls-3" d="M181.73,272a8.1,8.1,0,0,1,3.58-.72V274c-.16,0-.38,0-.66,0a4.9,4.9,0,0,0-3.69,1.4,5.56,5.56,0,0,0-1.33,4v7.94h-2.89V271.39h2.77v2.68A4.88,4.88,0,0,1,181.73,272Z"/><path class="cls-3" d="M199.7,272.86a6.24,6.24,0,0,1,1.76,4.84v9.63h-2.73v-2.11a4.51,4.51,0,0,1-2.06,1.7,7.75,7.75,0,0,1-3.18.59,6.64,6.64,0,0,1-4.28-1.29,4.13,4.13,0,0,1-1.61-3.4,4.2,4.2,0,0,1,1.53-3.39c1-.85,2.65-1.27,4.87-1.27h4.58v-.58a3.64,3.64,0,0,0-1.09-2.85,4.56,4.56,0,0,0-3.18-1,8.44,8.44,0,0,0-2.77.47,7.17,7.17,0,0,0-2.29,1.25l-1.2-2.17a8.67,8.67,0,0,1,2.95-1.52,12.32,12.32,0,0,1,3.64-.52A7.2,7.2,0,0,1,199.7,272.86Zm-2.87,11.69a4.24,4.24,0,0,0,1.75-2.09v-2.23h-4.46q-3.66,0-3.66,2.47a2.23,2.23,0,0,0,.93,1.89,4.25,4.25,0,0,0,2.58.69A5.36,5.36,0,0,0,196.83,284.55Z"/><path class="cls-3" d="M223.87,286.4a4.29,4.29,0,0,1-1.56.82,6.59,6.59,0,0,1-1.93.29,5.14,5.14,0,0,1-3.73-1.29,5,5,0,0,1-1.32-3.7v-8.76h-2.71v-2.37h2.71V267.9h2.89v3.49h4.57v2.37h-4.57v8.64a2.79,2.79,0,0,0,.64,2,2.41,2.41,0,0,0,1.85.69,3.48,3.48,0,0,0,2.26-.75Z"/><path class="cls-3" d="M242.22,271.39v15.94h-2.74v-2.41a5.73,5.73,0,0,1-2.3,1.91,7.19,7.19,0,0,1-3.11.68,7,7,0,0,1-5-1.76,6.87,6.87,0,0,1-1.83-5.19v-9.17h2.89v8.84a5,5,0,0,0,1.11,3.51,4.15,4.15,0,0,0,3.19,1.18,4.78,4.78,0,0,0,3.61-1.38,5.44,5.44,0,0,0,1.32-3.91v-8.24Z"/><path class="cls-3" d="M258.42,286.46a7.75,7.75,0,0,1-3-2.9,8.71,8.71,0,0,1,0-8.4,7.63,7.63,0,0,1,3-2.88,8.84,8.84,0,0,1,4.34-1,8.38,8.38,0,0,1,3.87.87,6.17,6.17,0,0,1,2.63,2.53l-2.2,1.41a4.89,4.89,0,0,0-1.86-1.71,5.23,5.23,0,0,0-2.47-.58,5.61,5.61,0,0,0-2.81.7,5,5,0,0,0-2,2,6,6,0,0,0-.7,2.93,6,6,0,0,0,.7,3,5,5,0,0,0,2,2,5.71,5.71,0,0,0,2.81.69,5.35,5.35,0,0,0,2.47-.57,4.89,4.89,0,0,0,1.86-1.71l2.2,1.38a6.31,6.31,0,0,1-2.63,2.54,8.27,8.27,0,0,1-3.87.89A8.85,8.85,0,0,1,258.42,286.46Z"/><path class="cls-3" d="M287.85,271.39v15.94h-2.74v-2.41a5.73,5.73,0,0,1-2.3,1.91,7.19,7.19,0,0,1-3.11.68,7,7,0,0,1-5-1.76,6.87,6.87,0,0,1-1.83-5.19v-9.17h2.89v8.84a5,5,0,0,0,1.11,3.51,4.15,4.15,0,0,0,3.19,1.18,4.78,4.78,0,0,0,3.61-1.38,5.44,5.44,0,0,0,1.32-3.91v-8.24Z"/><path class="cls-3" d="M307.7,280.32H294.77a5,5,0,0,0,1.85,3.39,6,6,0,0,0,3.92,1.27,5.9,5.9,0,0,0,4.6-1.92l1.6,1.86a6.86,6.86,0,0,1-2.7,1.93,10.14,10.14,0,0,1-8.07-.38,7.41,7.41,0,0,1-3-2.9,8.24,8.24,0,0,1-1.07-4.21,8.36,8.36,0,0,1,1-4.18,7.43,7.43,0,0,1,2.85-2.9,8.1,8.1,0,0,1,4.11-1,7.94,7.94,0,0,1,4.08,1,7.28,7.28,0,0,1,2.79,2.9,8.86,8.86,0,0,1,1,4.27A8.25,8.25,0,0,1,307.7,280.32Zm-11.29-5.38a5,5,0,0,0-1.64,3.31H305a5.11,5.11,0,0,0-1.64-3.3,5.36,5.36,0,0,0-6.94,0Z"/><path class="cls-3" d="M316.75,272a8.13,8.13,0,0,1,3.58-.72V274c-.16,0-.38,0-.66,0a4.86,4.86,0,0,0-3.68,1.4,5.52,5.52,0,0,0-1.34,4v7.94h-2.89V271.39h2.77v2.68A4.88,4.88,0,0,1,316.75,272Z"/><path class="cls-3" d="M336.48,272.26a7.33,7.33,0,0,1,2.88,2.86,8.45,8.45,0,0,1,1,4.24,8.55,8.55,0,0,1-1,4.25,7.25,7.25,0,0,1-2.88,2.88,8.37,8.37,0,0,1-4.15,1,7.39,7.39,0,0,1-3.14-.66,6.46,6.46,0,0,1-2.42-1.93v8.24h-2.89V271.39h2.77v2.52a6.21,6.21,0,0,1,2.43-2,7.75,7.75,0,0,1,3.25-.67A8.37,8.37,0,0,1,336.48,272.26Zm-1.63,12a5.11,5.11,0,0,0,1.92-2,6.4,6.4,0,0,0,0-5.86,4.92,4.92,0,0,0-1.92-2,5.42,5.42,0,0,0-2.76-.7,5.33,5.33,0,0,0-2.72.71,5.12,5.12,0,0,0-1.92,2,5.8,5.8,0,0,0-.71,2.92,6.07,6.07,0,0,0,.69,2.93,4.93,4.93,0,0,0,1.93,2,5.73,5.73,0,0,0,5.49,0Z"/><path class="cls-3" d="M347,286.46a7.64,7.64,0,0,1-3-2.9,8.78,8.78,0,0,1,0-8.4,7.52,7.52,0,0,1,3-2.88,8.68,8.68,0,0,1,4.27-1,8.56,8.56,0,0,1,4.26,1,7.63,7.63,0,0,1,2.95,2.88,8.78,8.78,0,0,1,0,8.4,7.75,7.75,0,0,1-2.95,2.9,8.57,8.57,0,0,1-4.26,1.05A8.69,8.69,0,0,1,347,286.46Zm7-2.18a5.08,5.08,0,0,0,1.91-2,6.57,6.57,0,0,0,0-5.86,4.9,4.9,0,0,0-1.91-2,5.77,5.77,0,0,0-5.51,0,4.92,4.92,0,0,0-1.92,2,6.4,6.4,0,0,0,0,5.86,5.11,5.11,0,0,0,1.92,2,5.77,5.77,0,0,0,5.51,0Z"/></g></g></svg>