<svg xmlns="http://www.w3.org/2000/svg" viewBox="0 0 1122.28 197.94"><defs><style>.cls-1,.cls-2{fill:#fff;}.cls-2{stroke:#fff;stroke-miterlimit:10;stroke-width:4px;}</style></defs><g id="Layer_2" data-name="Layer 2"><g id="Layer_1-2" data-name="Layer 1"><path class="cls-1" d="M25.7,70.71A50.69,50.69,0,0,1,81.11,59.52,53,53,0,0,1,98.2,71,5.41,5.41,0,0,0,106,71a5.35,5.35,0,0,0,1.48-3.72,5.49,5.49,0,0,0-1.58-3.82l0,0A62.57,62.57,0,0,0,85.32,49.6a61.74,61.74,0,0,0-55.48,4.18,60.35,60.35,0,0,0-12.43,10A62.89,62.89,0,0,0,2.1,91,61.12,61.12,0,0,0,0,107a61.86,61.86,0,0,0,2.19,16.47,63.11,63.11,0,0,0,6.19,14.79A62.13,62.13,0,0,0,18,150.79a60.86,60.86,0,0,0,12.48,9.66,63.4,63.4,0,0,0,14.74,6.23,60.2,60.2,0,0,0,16.47,2.24,64.65,64.65,0,0,0,23.39-4.37,59.73,59.73,0,0,0,20.67-13.72,5.19,5.19,0,0,0,1.51-3.8,5.38,5.38,0,0,0-1.69-4,5.54,5.54,0,0,0-7.52.26A50.2,50.2,0,0,1,81,154.6a51.32,51.32,0,0,1-55.62-11.78A51.38,51.38,0,0,1,14.69,126.5,51.68,51.68,0,0,1,14.82,87,52.51,52.51,0,0,1,25.7,70.71Z"/><path class="cls-1" d="M173.65,47.36a5.16,5.16,0,0,0-1.59,3.87V162.34a5.37,5.37,0,1,0,10.74,0V51.23a5.19,5.19,0,0,0-1.58-3.87A5.56,5.56,0,0,0,173.65,47.36Z"/><path class="cls-1" d="M333.39,56.7a5.09,5.09,0,0,0,3.82-1.64,5.32,5.32,0,0,0,1.55-3.83,5.17,5.17,0,0,0-1.58-3.87,5.29,5.29,0,0,0-3.79-1.5H260.62a5.73,5.73,0,0,0-3.81,1.4,5,5,0,0,0-1.75,4V162.06a5.75,5.75,0,0,0,1.28,3.74,5.21,5.21,0,0,0,3.68,1.9h73.6a4.83,4.83,0,0,0,3.59-1.54,5.46,5.46,0,0,0,1.55-3.93,5.34,5.34,0,0,0-5.37-5.36H265.81v-46h50.64a5.29,5.29,0,0,0,3.86-1.51,5.14,5.14,0,0,0,1.52-3.77,5.62,5.62,0,0,0-1.47-3.83,4.87,4.87,0,0,0-3.91-1.63H265.81V56.7Z"/><path class="cls-1" d="M480.42,157l-65.26-.09V51.33a5.32,5.32,0,0,0-1.57-3.9,5.43,5.43,0,0,0-7.61,0,5.28,5.28,0,0,0-1.56,3.9v111a5.25,5.25,0,0,0,1.26,3.55,5.62,5.62,0,0,0,3.45,1.82h71.51a4.89,4.89,0,0,0,3.53-1.52,5.37,5.37,0,0,0,1.62-3.95,5.06,5.06,0,0,0-1.65-3.79A5.37,5.37,0,0,0,480.42,157Z"/><path class="cls-1" d="M640.28,47.35a5.08,5.08,0,0,0-1.65,3.88v64.49a42.78,42.78,0,0,1-3.24,16.59,41.5,41.5,0,0,1-22.22,22.49,43.16,43.16,0,0,1-32.85,0,43.76,43.76,0,0,1-13.63-8.93,42.79,42.79,0,0,1-9.28-13.39A40.57,40.57,0,0,1,554,115.91V51.51a5.16,5.16,0,0,0-1.58-3.87,5.56,5.56,0,0,0-7.58,0,5.16,5.16,0,0,0-1.58,3.87v64.4A51.79,51.79,0,0,0,545.16,130a54,54,0,0,0,5.4,12.7A52.4,52.4,0,0,0,559,153.41,54.27,54.27,0,0,0,582.54,167a52.75,52.75,0,0,0,14.19,1.91,51.55,51.55,0,0,0,20.6-4.16,52.93,52.93,0,0,0,28-28.22,52.33,52.33,0,0,0,4.11-20.63V51.23A5.25,5.25,0,0,0,648,47.38,5.66,5.66,0,0,0,640.28,47.35Z"/><path class="cls-1" d="M827,47.45a5.19,5.19,0,0,0-6.11-1.09,5.54,5.54,0,0,0-1.8,1.23l-46.3,57.94L726,47.4a5.68,5.68,0,0,0-1.68-1,3.19,3.19,0,0,0-.75-.28L723,46a4.61,4.61,0,0,0-4.5,1.48,5.23,5.23,0,0,0-1.56,3.8V162.34a5.22,5.22,0,0,0,1.56,3.8,5.44,5.44,0,0,0,7.62,0,5.22,5.22,0,0,0,1.57-3.81V66.19L768,116.28a6.87,6.87,0,0,0,1.79,2.14,4.66,4.66,0,0,0,3,1,3.47,3.47,0,0,0,1.08-.14,6.9,6.9,0,0,0,1.39-.57l.33-.27a5.77,5.77,0,0,0,1.15-.94l41-51.29v96.13a5.1,5.1,0,0,0,1.63,3.82,5.22,5.22,0,0,0,3.74,1.55,5.36,5.36,0,0,0,3.83-1.54,5.14,5.14,0,0,0,1.63-3.83V51.23A5.24,5.24,0,0,0,827,47.45Z"/><path class="cls-2" d="M941.61,119.7l-.92-.65a144,144,0,0,1-42.45-47.37A46.19,46.19,0,0,1,950,3.58a46.36,46.36,0,0,1,31.19,28.11A130.79,130.79,0,0,1,987.86,112l-.41,1.78-1.81-.29a74.54,74.54,0,0,0-43,5.73ZM938,5.93a42.27,42.27,0,0,0-36.4,63.8,140.22,140.22,0,0,0,40.41,45.46,78.37,78.37,0,0,1,42.39-5.84,126.9,126.9,0,0,0-6.9-76.17l0-.06A42.27,42.27,0,0,0,938,5.93Z"/><path class="cls-2" d="M997.58,142.93l-2.12-.42c-3.19-.64-6.3-1.36-9.23-2.14s-5.93-1.7-9.06-2.76l-2-.7.89-2a129.74,129.74,0,0,0,7-19.56q.56-2.13,1-4.26l.42-1.79,1.81.29c2.59.43,5.2,1,7.75,1.67s5.08,1.5,7.55,2.43l1.72.65-.53,1.76c-.43,1.4-.84,2.8-1.22,4.23a128.08,128.08,0,0,0-3.74,20.42Zm-17.12-8.36c2.32.74,4.55,1.41,6.79,2s4.51,1.14,6.88,1.65a132.31,132.31,0,0,1,3.62-18.89c.23-.86.47-1.72.72-2.57-1.81-.63-3.64-1.2-5.46-1.69s-3.71-.91-5.58-1.27c-.21.87-.42,1.73-.65,2.59A134.28,134.28,0,0,1,980.46,134.57Z"/><path class="cls-2" d="M978.86,138.18l-1.69-.57a142.6,142.6,0,0,1-36.48-18.56l-2.79-2,3.11-1.41a78.36,78.36,0,0,1,45.26-6l2.07.34-.48,2.05c-.34,1.46-.69,2.92-1.08,4.39a133.87,133.87,0,0,1-7.19,20.15Zm-33-20.33a138.39,138.39,0,0,0,30.86,15.45A129.36,129.36,0,0,0,983,115.38c.19-.73.38-1.46.56-2.19A74.38,74.38,0,0,0,945.87,117.85Z"/><path class="cls-2" d="M1023.37,145.27a142.77,142.77,0,0,1-27.91-2.76l-1.75-.35.18-1.77a133.56,133.56,0,0,1,3.86-21c.39-1.47.81-2.91,1.25-4.35l.61-2,2,.74a78.41,78.41,0,0,1,36.18,27.86l2,2.78-3.41.31Q1029.87,145.27,1023.37,145.27ZM998,139a137.92,137.92,0,0,0,34.45,2,74.41,74.41,0,0,0-30.29-22.87c-.21.73-.42,1.45-.61,2.19h0A128.52,128.52,0,0,0,998,139Z"/><path class="cls-2" d="M1013.9,50.73a13.64,13.64,0,1,1,13.19-10.11h0A13.67,13.67,0,0,1,1013.9,50.73Zm0-23.37a9.73,9.73,0,1,0,9.39,12.24h0a9.73,9.73,0,0,0-6.88-11.9A9.48,9.48,0,0,0,1013.91,27.36Z"/><path class="cls-2" d="M1021.67,195.94a27.51,27.51,0,0,1-7.11-.94,27.16,27.16,0,0,1-20-23.11,131.21,131.21,0,0,1-.64-31.5l.22-2.15,2.12.42a139.63,139.63,0,0,0,25.6,2.67,137.19,137.19,0,0,0,14.14-.57l1.13-.1.65.92a79.53,79.53,0,0,1,9,16.33,27.32,27.32,0,0,1-25.06,38Zm-24.07-53a127.24,127.24,0,0,0,.82,28.46,23.37,23.37,0,1,0,44.69-11.94v0a76.23,76.23,0,0,0-7.9-14.64c-4.39.37-8.86.54-13.32.49A144.82,144.82,0,0,1,997.6,142.92Z"/><path class="cls-2" d="M1035.26,144.77l-.66-.92a74.44,74.44,0,0,0-34.37-26.46l-1.72-.65.54-1.76a130.78,130.78,0,0,1,45.28-65.69A46.2,46.2,0,0,1,1118.7,96.6h0a46,46,0,0,1-19.18,26.6v0l-1.74,1.07a143.72,143.72,0,0,1-61.41,20.37Zm-31.92-30.38a78.33,78.33,0,0,1,33.79,26.26A140,140,0,0,0,1094,122h0l1.77-1.07a42.27,42.27,0,1,0-49-68.58A127.09,127.09,0,0,0,1003.34,114.39Z"/><path class="cls-2" d="M941.49,174.45A27.29,27.29,0,0,1,925,125.34a79.08,79.08,0,0,1,16-9.68l1-.47.92.65a138.28,138.28,0,0,0,35.47,18l2,.69-.88,2a131.2,131.2,0,0,1-16.45,27.17A27.19,27.19,0,0,1,941.49,174.45Zm.13-54.75a75.65,75.65,0,0,0-14.2,8.75A23.37,23.37,0,1,0,960,161.32a126.65,126.65,0,0,0,15.08-24.43A142.16,142.16,0,0,1,941.62,119.7Z"/></g></g></svg>