<svg xmlns="http://www.w3.org/2000/svg" viewBox="0 0 468.49 468.54"><defs><style>.cls-1{fill:#fff;opacity:0.3;}.cls-2{fill:#0f3855;fill-rule:evenodd;}</style></defs><g id="Layer_2" data-name="Layer 2"><g id="Layer_1-2" data-name="Layer 1"><path class="cls-1" d="M468.49,234.27c0,129.47-105,234.27-234.33,234.27S0,363.74,0,234.27,104.8,0,234.16,0,468.49,104.9,468.49,234.27Z"/><path class="cls-2" d="M373.08,200.76c-15.51-64.85-71.46-109.06-138.92-110-8.9.44-18.5,1.09-27.24,2.84-94.59,18.88-143.28,123.36-97.54,207.52,1.64,2.4,1.64,4.48,1.31,7.1C104,329.89,97.92,352.27,92,374.32c-1,3.83-1,3.83,2.67,2.84,23.09-6.33,46-12.11,69-17.9a6.35,6.35,0,0,1,5.13.33c29.59,15.06,60.81,19.21,93.56,13.2C340.49,357.62,391.74,278,373.08,200.76ZM254.19,349.87c-6.82,1.31-13.21,1.85-16.43,1.42-25.16,0-45.41-5.57-64.24-16.48-2.68-1.65-4.7-2.08-7.26-1.21-12.88,3.18-25.44,6.66-38.21,9.94-2.62.76-2.89.32-2.29-2.4,3.38-11.69,6.55-23.69,10.26-35.92.82-3.28.6-5.78-1.47-8.51-25.82-41.92-24.68-93.77,4.2-132.64,30.07-40.17,71.39-56.88,120.46-46.39,48.42,10.15,79.43,41.69,90.45,89.84C365.32,273.45,320.78,339.07,254.19,349.87Z"/><path class="cls-2" d="M271.44,301.07a37.75,37.75,0,0,1-14.79-2c-32.59-9.49-57.26-29.46-77.07-56.65-7.37-10-14.41-20.85-16.54-33.51-3-14.74,1.64-27.95,12.83-38.1,3.71-3.5,14.57-5.13,19-2.84a16,16,0,0,1,3.17,3.83c4,10.15,8.35,19.54,12.44,29.14a7.52,7.52,0,0,1-.6,6c-2.18,4.48-5.51,8.08-8.73,11.79-2.73,2.3-2.73,5-.88,7.86,11.68,19.43,27.46,33.4,48.63,41.71,3.07,1.31,5.41.76,7.33-1.64,3.65-4.26,7.25-8.85,10.64-13.32,2.07-2.84,4.85-3.27,7.91-2,7,3.16,13.86,6.43,20.53,9.49a30.83,30.83,0,0,0,4.79,2.19c7,3.6,7,4,6.23,11.57-.93,14.95-12.34,22.49-25.39,26.09A25.55,25.55,0,0,1,271.44,301.07Z"/></g></g></svg>